<?xml version="1.0" encoding="UTF-8"?>
<!DOCTYPE svg PUBLIC "-//W3C//DTD SVG 1.1//EN" "http://www.w3.org/Graphics/SVG/1.1/DTD/svg11.dtd">
<svg xmlns="http://www.w3.org/2000/svg" version="1.1" width="500px" height="252px" style="shape-rendering:geometricPrecision; text-rendering:geometricPrecision; image-rendering:optimizeQuality; fill-rule:evenodd; clip-rule:evenodd" xmlns:xlink="http://www.w3.org/1999/xlink">
<g><path style="opacity:0.184" fill="#e6c991" d="M 99.5,22.5 C 99.762,21.0222 99.4287,19.6888 98.5,18.5C 96.4275,20.568 94.7608,22.9013 93.5,25.5C 92.8333,25.8333 92.1667,26.1667 91.5,26.5C 93.771,22.1355 96.4377,17.9688 99.5,14C 100.965,13.3987 101.965,13.8987 102.5,15.5C 101.67,18.0164 100.67,20.3498 99.5,22.5 Z"/></g>
<g><path style="opacity:1" fill="#eaa041" d="M 93.5,25.5 C 92.4639,27.3911 92.4639,29.2245 93.5,31C 92.2341,31.3095 91.0674,31.8095 90,32.5C 89.4602,35.5232 87.9602,37.8565 85.5,39.5C 86.3612,34.5572 88.3612,30.2238 91.5,26.5C 92.1667,26.1667 92.8333,25.8333 93.5,25.5 Z"/></g>
<g><path style="opacity:1" fill="#ea982a" d="M 99.5,22.5 C 98.99,25.5394 98.3234,28.5394 97.5,31.5C 95.9174,33.5078 94.9174,35.8411 94.5,38.5C 94.1486,33.9882 94.8152,29.6549 96.5,25.5C 96.3333,24.8333 96.1667,24.1667 96,23.5C 95.2917,24.3805 94.4584,25.0472 93.5,25.5C 94.7608,22.9013 96.4275,20.568 98.5,18.5C 99.4287,19.6888 99.762,21.0222 99.5,22.5 Z"/></g>
<g><path style="opacity:0.965" fill="#8acbbb" d="M 115.5,65.5 C 114.778,65.0825 114.278,64.4158 114,63.5C 113.832,54.4816 113.332,45.4816 112.5,36.5C 111.583,37.1272 110.583,37.4606 109.5,37.5C 110.936,32.9691 113.603,29.3025 117.5,26.5C 117.833,27.1667 118.167,27.8333 118.5,28.5C 114.391,40.5352 113.391,52.8685 115.5,65.5 Z"/></g>
<g><path style="opacity:1" fill="#f89008" d="M 94.5,38.5 C 94.2986,47.2081 94.7986,55.8748 96,64.5C 96.3736,66.4913 97.207,68.158 98.5,69.5C 98.5018,73.1645 99.8352,76.1645 102.5,78.5C 102.75,80.674 103.75,82.3406 105.5,83.5C 109.61,87.9508 112.944,92.9508 115.5,98.5C 116.06,100.801 116.56,103.134 117,105.5C 117.671,106.252 118.504,106.586 119.5,106.5C 119.828,112.804 121.328,118.804 124,124.5C 124.56,134.845 124.393,145.179 123.5,155.5C 122.504,155.414 121.671,155.748 121,156.5C 120.73,159.362 119.896,162.028 118.5,164.5C 118.144,157.119 117.144,150.119 115.5,143.5C 115.5,142.833 115.5,142.167 115.5,141.5C 115.216,134.693 113.55,128.359 110.5,122.5C 110.167,121.833 109.833,121.167 109.5,120.5C 109.143,116.737 108.31,113.07 107,109.5C 105.887,108.695 104.721,108.028 103.5,107.5C 101.738,106.738 100.738,105.404 100.5,103.5C 95.4552,95.9182 90.9552,87.9182 87,79.5C 86.1557,75.7894 85.1557,72.1228 84,68.5C 83.2459,58.742 83.7459,49.0754 85.5,39.5C 87.9602,37.8565 89.4602,35.5232 90,32.5C 91.0674,31.8095 92.2341,31.3095 93.5,31C 92.4639,29.2245 92.4639,27.3911 93.5,25.5C 94.4584,25.0472 95.2917,24.3805 96,23.5C 96.1667,24.1667 96.3333,24.8333 96.5,25.5C 94.8152,29.6549 94.1486,33.9882 94.5,38.5 Z"/></g>
<g><path style="opacity:0.176" fill="#eebf7c" d="M 97.5,31.5 C 94.6959,44.2454 95.0293,56.9121 98.5,69.5C 97.207,68.158 96.3736,66.4913 96,64.5C 94.7986,55.8748 94.2986,47.2081 94.5,38.5C 94.9174,35.8411 95.9174,33.5078 97.5,31.5 Z"/></g>
<g><path style="opacity:0.737" fill="#ebbf7a" d="M 85.5,39.5 C 83.7459,49.0754 83.2459,58.742 84,68.5C 85.1557,72.1228 86.1557,75.7894 87,79.5C 90.9552,87.9182 95.4552,95.9182 100.5,103.5C 83.0893,85.0162 78.0893,63.6829 85.5,39.5 Z"/></g>
<g><path style="opacity:1" fill="#50c0b8" d="M 115.5,65.5 C 118.56,71.9437 122.393,77.9437 127,83.5C 130.015,88.5251 132.182,93.8585 133.5,99.5C 134.532,107.472 134.698,115.472 134,123.5C 133.273,125.953 132.273,128.286 131,130.5C 130.667,124.5 130.333,118.5 130,112.5C 128.781,108.793 126.948,105.46 124.5,102.5C 120.629,95.2779 116.295,88.2779 111.5,81.5C 106.688,71.0983 104.688,60.0983 105.5,48.5C 106.065,44.4632 107.399,40.7966 109.5,37.5C 110.583,37.4606 111.583,37.1272 112.5,36.5C 113.332,45.4816 113.832,54.4816 114,63.5C 114.278,64.4158 114.778,65.0825 115.5,65.5 Z"/></g>
<g><path style="opacity:0.557" fill="#ace0e6" d="M 251.5,63.5 C 250.5,65.1667 249.167,66.5 247.5,67.5C 247.833,65.1667 249.167,63.8333 251.5,63.5 Z"/></g>
<g><path style="opacity:1" fill="#2299d6" d="M 268.5,85.5 C 268.027,86.9063 267.027,87.573 265.5,87.5C 260.463,87.5874 255.463,87.254 250.5,86.5C 247.263,82.4603 245.596,77.7936 245.5,72.5C 245.12,70.302 245.787,68.6354 247.5,67.5C 249.167,66.5 250.5,65.1667 251.5,63.5C 255.87,62.5373 260.203,62.5373 264.5,63.5C 265.001,66.6672 266.667,69.0005 269.5,70.5C 269.833,72.3333 270.167,74.1667 270.5,76C 270.003,79.2413 269.336,82.4079 268.5,85.5 Z"/></g>
<g><path style="opacity:0.859" fill="#f7bf79" d="M 98.5,69.5 C 100.592,72.0884 101.925,75.0884 102.5,78.5C 99.8352,76.1645 98.5018,73.1645 98.5,69.5 Z"/></g>
<g><path style="opacity:0.204" fill="#afddcd" d="M 105.5,48.5 C 104.688,60.0983 106.688,71.0983 111.5,81.5C 108.3,77.4387 106.133,72.772 105,67.5C 104.18,60.9863 104.347,54.6529 105.5,48.5 Z"/></g>
<g><path style="opacity:1" fill="#55a5cb" d="M 271.5,69.5 C 271.5,73.5 271.5,77.5 271.5,81.5C 271.262,83.4044 270.262,84.7377 268.5,85.5C 269.336,82.4079 270.003,79.2413 270.5,76C 270.167,74.1667 269.833,72.3333 269.5,70.5C 266.667,69.0005 265.001,66.6672 264.5,63.5C 260.203,62.5373 255.87,62.5373 251.5,63.5C 260.032,58.969 266.698,60.969 271.5,69.5 Z"/></g>
<g><path style="opacity:0.839" fill="#93c5d3" d="M 271.5,69.5 C 272.972,71.1175 273.639,73.1175 273.5,75.5C 273.639,77.8825 272.972,79.8825 271.5,81.5C 271.5,77.5 271.5,73.5 271.5,69.5 Z"/></g>
<g><path style="opacity:0.447" fill="#f9ce82" d="M 102.5,78.5 C 104.25,79.6594 105.25,81.326 105.5,83.5C 103.75,82.3406 102.75,80.674 102.5,78.5 Z"/></g>
<g><path style="opacity:0.51" fill="#a9ddea" d="M 245.5,72.5 C 245.596,77.7936 247.263,82.4603 250.5,86.5C 245.618,82.8474 243.951,78.1807 245.5,72.5 Z"/></g>
<g><path style="opacity:1" fill="#82bfd2" d="M 250.5,86.5 C 255.463,87.254 260.463,87.5874 265.5,87.5C 263.71,88.9973 261.544,89.664 259,89.5C 255.642,89.7271 252.809,88.7271 250.5,86.5 Z"/></g>
<g><path style="opacity:0.917" fill="#6ab0cf" d="M 43.5,73.5 C 43.3334,99.1688 43.5,124.835 44,150.5C 44.2321,151.737 44.7321,152.737 45.5,153.5C 48.5,161.167 53.8333,166.5 61.5,169.5C 62.5,170.167 63.5,170.833 64.5,171.5C 58.3099,172.076 53.6432,169.743 50.5,164.5C 48.0789,164.024 45.7456,163.691 43.5,163.5C 42.0669,161.442 41.4003,159.108 41.5,156.5C 42.4821,130.211 42.8154,103.878 42.5,77.5C 42.5,76.5 42.5,75.5 42.5,74.5C 35.8333,74.5 29.1667,74.5 22.5,74.5C 22.3334,98.8356 22.5,123.169 23,147.5C 23.3924,150.188 23.8924,152.855 24.5,155.5C 25.7742,160.37 27.7742,164.703 30.5,168.5C 31.1667,170.5 31.8333,172.5 32.5,174.5C 26.019,167.529 22.1857,159.196 21,149.5C 20.3333,124.167 20.3333,98.8333 21,73.5C 28.5985,72.1729 36.0985,72.1729 43.5,73.5 Z"/></g>
<g><path style="opacity:1" fill="#1b99d7" d="M 42.5,77.5 C 42.8154,103.878 42.4821,130.211 41.5,156.5C 40.213,155.232 39.213,155.565 38.5,157.5C 37.3076,155.258 36.3076,152.925 35.5,150.5C 34.1667,150.167 32.8333,149.833 31.5,149.5C 33.4468,147.724 33.7801,145.724 32.5,143.5C 31.0295,144.381 30.1962,145.714 30,147.5C 28.8964,123.712 29.3964,100.045 31.5,76.5C 35.1788,76.7244 38.8455,77.0578 42.5,77.5 Z"/></g>
<g><path style="opacity:1" fill="#1b99d8" d="M 42.5,77.5 C 38.8455,77.0578 35.1788,76.7244 31.5,76.5C 29.3964,100.045 28.8964,123.712 30,147.5C 30.1962,145.714 31.0295,144.381 32.5,143.5C 33.7801,145.724 33.4468,147.724 31.5,149.5C 32.8333,149.833 34.1667,150.167 35.5,150.5C 36.3076,152.925 37.3076,155.258 38.5,157.5C 39.213,155.565 40.213,155.232 41.5,156.5C 41.4003,159.108 42.0669,161.442 43.5,163.5C 40.5804,162.558 37.9138,161.224 35.5,159.5C 34.3572,153.732 32.6905,153.398 30.5,158.5C 29.2011,157.91 28.3678,156.91 28,155.5C 27.8333,156.167 27.6667,156.833 27.5,157.5C 29.3981,160.223 31.0648,163.057 32.5,166C 31.9341,166.995 31.2674,167.828 30.5,168.5C 27.7742,164.703 25.7742,160.37 24.5,155.5C 23.8924,152.855 23.3924,150.188 23,147.5C 22.5,123.169 22.3334,98.8356 22.5,74.5C 29.1667,74.5 35.8333,74.5 42.5,74.5C 42.5,75.5 42.5,76.5 42.5,77.5 Z"/></g>
<g><path style="opacity:0.055" fill="#bbe5ed" d="M 321.5,101.5 C 324.976,100.357 328.642,100.19 332.5,101C 335.191,101.156 337.524,101.989 339.5,103.5C 333.599,102.043 327.599,101.376 321.5,101.5 Z"/></g>
<g><path style="opacity:0.847" fill="#96cde1" d="M 443.5,102.5 C 436.132,102.317 428.799,102.65 421.5,103.5C 424.912,101.354 428.745,100.354 433,100.5C 436.76,100.486 440.26,101.153 443.5,102.5 Z"/></g>
<g><path style="opacity:1" fill="#90ccdf" d="M 194.5,101.5 C 201.038,99.9066 207.371,100.573 213.5,103.5C 207.167,102.833 200.833,102.167 194.5,101.5 Z"/></g>
<g><path style="opacity:0.188" fill="#a7d7e4" d="M 320.5,101.5 C 318.5,102.5 316.5,103.5 314.5,104.5C 313.167,104.5 311.833,104.5 310.5,104.5C 313.452,102.59 316.786,101.59 320.5,101.5 Z"/></g>
<g><path style="opacity:1" fill="#1e9ad7" d="M 409.5,109.5 C 413.139,107.291 417.139,106.291 421.5,106.5C 421.5,105.5 421.5,104.5 421.5,103.5C 428.799,102.65 436.132,102.317 443.5,102.5C 449.547,103.355 454.547,106.021 458.5,110.5C 457.883,110.611 457.383,110.944 457,111.5C 453.558,109.574 450.058,107.574 446.5,105.5C 442.826,104.767 439.159,104.101 435.5,103.5C 435.167,103.833 434.833,104.167 434.5,104.5C 435.833,105.167 437.167,105.833 438.5,106.5C 434.693,106.837 431.36,108.171 428.5,110.5C 430.766,111.314 433.1,111.814 435.5,112C 432.888,113.997 430.222,115.997 427.5,118C 430.423,119.71 433.423,119.877 436.5,118.5C 438.179,120.68 439.512,123.014 440.5,125.5C 437.408,123.623 434.075,122.289 430.5,121.5C 425.162,120.054 419.829,120.387 414.5,122.5C 413.167,122.5 411.833,122.5 410.5,122.5C 410.5,123.5 410.5,124.5 410.5,125.5C 408.143,125.337 405.81,125.503 403.5,126C 404.574,126.739 405.241,127.739 405.5,129C 404.518,148.799 404.185,168.633 404.5,188.5C 397.833,188.5 391.167,188.5 384.5,188.5C 384.5,159.833 384.5,131.167 384.5,102.5C 390.833,102.5 397.167,102.5 403.5,102.5C 403.5,106.167 403.5,109.833 403.5,113.5C 406.292,113.378 408.292,112.044 409.5,109.5 Z"/></g>
<g><path style="opacity:1" fill="#efb359" d="M 115.5,98.5 C 117.771,100.612 119.104,103.279 119.5,106.5C 118.504,106.586 117.671,106.252 117,105.5C 116.56,103.134 116.06,100.801 115.5,98.5 Z"/></g>
<g><path style="opacity:1" fill="#1a99d8" d="M 152.5,102.5 C 158.833,102.5 165.167,102.5 171.5,102.5C 171.5,106.5 171.5,110.5 171.5,114.5C 172.833,114.5 174.167,114.5 175.5,114.5C 175.33,113.178 175.663,112.011 176.5,111C 179.171,109.097 182.171,108.264 185.5,108.5C 189.448,109.814 189.448,111.314 185.5,113C 185.833,113.333 186.167,113.667 186.5,114C 191.467,115.163 196.467,115.663 201.5,115.5C 203.374,115.61 204.874,114.944 206,113.5C 207.188,114.563 207.688,115.897 207.5,117.5C 201,117.936 194.666,118.602 188.5,119.5C 182.251,120.774 177.585,124.107 174.5,129.5C 173.25,129.577 172.417,130.244 172,131.5C 171.663,134.861 171.163,138.194 170.5,141.5C 171.798,156.166 171.798,170.833 170.5,185.5C 166.023,185.881 161.69,186.881 157.5,188.5C 156.5,188.167 155.5,187.833 154.5,187.5C 156.045,186.548 157.712,186.215 159.5,186.5C 159.5,185.5 159.5,184.5 159.5,183.5C 157.167,183.5 154.833,183.5 152.5,183.5C 152.5,156.5 152.5,129.5 152.5,102.5 Z"/></g>
<g><path style="opacity:1" fill="#6aaed0" d="M 421.5,103.5 C 421.5,104.5 421.5,105.5 421.5,106.5C 417.139,106.291 413.139,107.291 409.5,109.5C 412.65,105.925 416.65,103.925 421.5,103.5 Z"/></g>
<g><path style="opacity:1" fill="#76b6d3" d="M 150.5,101.5 C 157.321,100.345 164.321,100.179 171.5,101C 173.101,104.267 173.934,107.767 174,111.5C 179.578,105.628 186.411,102.295 194.5,101.5C 192.594,102.482 190.594,103.482 188.5,104.5C 186.596,105.733 185.596,107.066 185.5,108.5C 182.171,108.264 179.171,109.097 176.5,111C 175.663,112.011 175.33,113.178 175.5,114.5C 174.167,114.5 172.833,114.5 171.5,114.5C 171.5,110.5 171.5,106.5 171.5,102.5C 165.167,102.5 158.833,102.5 152.5,102.5C 152.158,101.662 151.492,101.328 150.5,101.5 Z"/></g>
<g><path style="opacity:1" fill="#f5bb61" d="M 103.5,107.5 C 104.721,108.028 105.887,108.695 107,109.5C 108.31,113.07 109.143,116.737 109.5,120.5C 107.247,116.325 105.247,111.991 103.5,107.5 Z"/></g>
<g><path style="opacity:1" fill="#1e99d7" d="M 194.5,101.5 C 200.833,102.167 207.167,102.833 213.5,103.5C 215.553,103.402 217.22,104.069 218.5,105.5C 220.849,107.589 223.016,109.922 225,112.5C 225.333,114.167 225.667,115.833 226,117.5C 227.68,116.397 229.18,116.73 230.5,118.5C 231.5,121.251 232.667,123.918 234,126.5C 234.5,147.497 234.667,168.497 234.5,189.5C 228.167,189.5 221.833,189.5 215.5,189.5C 215.83,172.991 215.496,156.658 214.5,140.5C 213.99,136.44 213.156,132.44 212,128.5C 211.329,127.748 210.496,127.414 209.5,127.5C 207.809,126.136 206.142,124.803 204.5,123.5C 204.586,122.504 204.252,121.671 203.5,121C 198.519,120.252 193.519,119.752 188.5,119.5C 194.666,118.602 201,117.936 207.5,117.5C 207.688,115.897 207.188,114.563 206,113.5C 204.874,114.944 203.374,115.61 201.5,115.5C 196.467,115.663 191.467,115.163 186.5,114C 186.167,113.667 185.833,113.333 185.5,113C 189.448,111.314 189.448,109.814 185.5,108.5C 185.596,107.066 186.596,105.733 188.5,104.5C 190.594,103.482 192.594,102.482 194.5,101.5 Z"/></g>
<g><path style="opacity:1" fill="#51a5cf" d="M 310.5,104.5 C 308.666,106.505 306.999,108.672 305.5,111C 304.551,111.617 303.718,111.451 303,110.5C 300.832,111.629 300.332,113.129 301.5,115C 297.63,115.171 294.463,116.671 292,119.5C 290.691,121.686 290.524,123.853 291.5,126C 290.069,126.465 288.903,127.299 288,128.5C 287.46,131.361 286.46,134.028 285,136.5C 284.335,144.856 284.501,153.189 285.5,161.5C 286.5,161.5 287.5,161.5 288.5,161.5C 289.588,165.28 291.921,168.28 295.5,170.5C 295.069,171.293 294.735,172.127 294.5,173C 296.497,175.17 297.831,177.67 298.5,180.5C 289.069,173.651 283.735,164.318 282.5,152.5C 282.447,146.804 282.78,141.138 283.5,135.5C 284.773,129.859 286.939,124.526 290,119.5C 295.35,112.295 302.183,107.295 310.5,104.5 Z"/></g>
<g><path style="opacity:0.98" fill="#90cdbb" d="M 133.5,99.5 C 134.268,100.263 134.768,101.263 135,102.5C 135.667,110.5 135.667,118.5 135,126.5C 133.512,130.81 131.512,134.81 129,138.5C 128.13,137.892 127.63,137.059 127.5,136C 128.612,129.205 128.778,122.371 128,115.5C 126.316,111.284 125.149,106.951 124.5,102.5C 126.948,105.46 128.781,108.793 130,112.5C 130.333,118.5 130.667,124.5 131,130.5C 132.273,128.286 133.273,125.953 134,123.5C 134.698,115.472 134.532,107.472 133.5,99.5 Z"/></g>
<g><path style="opacity:1" fill="#75b4cd" d="M 188.5,119.5 C 193.519,119.752 198.519,120.252 203.5,121C 204.252,121.671 204.586,122.504 204.5,123.5C 197.573,121.075 190.573,120.909 183.5,123C 179.973,125.362 176.973,128.196 174.5,131.5C 174.5,130.833 174.5,130.167 174.5,129.5C 177.585,124.107 182.251,120.774 188.5,119.5 Z"/></g>
<g><path style="opacity:1" fill="#1a9ad9" d="M 458.5,110.5 C 459.09,114.587 460.423,118.254 462.5,121.5C 461.167,121.5 459.833,121.5 458.5,121.5C 458.279,126.062 459.779,126.728 463,123.5C 464.755,124.67 465.755,126.337 466,128.5C 466.781,146.848 466.614,165.181 465.5,183.5C 465.351,185.32 464.684,186.82 463.5,188C 458.511,188.499 453.511,188.666 448.5,188.5C 448.667,170.83 448.5,153.164 448,135.5C 447.664,131.033 446.498,127.699 444.5,125.5C 443.167,125.5 441.833,125.5 440.5,125.5C 439.512,123.014 438.179,120.68 436.5,118.5C 433.423,119.877 430.423,119.71 427.5,118C 430.222,115.997 432.888,113.997 435.5,112C 433.1,111.814 430.766,111.314 428.5,110.5C 431.36,108.171 434.693,106.837 438.5,106.5C 437.167,105.833 435.833,105.167 434.5,104.5C 434.833,104.167 435.167,103.833 435.5,103.5C 439.159,104.101 442.826,104.767 446.5,105.5C 450.058,107.574 453.558,109.574 457,111.5C 457.383,110.944 457.883,110.611 458.5,110.5 Z"/></g>
<g><path style="opacity:0.357" fill="#abdfee" d="M 430.5,121.5 C 425.05,121.365 419.716,122.031 414.5,123.5C 414.5,123.167 414.5,122.833 414.5,122.5C 419.829,120.387 425.162,120.054 430.5,121.5 Z"/></g>
<g><path style="opacity:0.055" fill="#cff5f6" d="M 43.5,73.5 C 44.2108,100.016 44.8775,126.682 45.5,153.5C 44.7321,152.737 44.2321,151.737 44,150.5C 43.5,124.835 43.3334,99.1688 43.5,73.5 Z"/></g>
<g><path style="opacity:1" fill="#80bcd6" d="M 247.5,100.5 C 255.42,100.185 263.253,100.518 271,101.5C 271.828,131.738 271.662,161.905 270.5,192C 262.587,192.814 254.754,192.647 247,191.5C 246.175,161.095 246.342,130.762 247.5,100.5 Z"/></g>
<g><path style="opacity:1" fill="#1a99d7" d="M 248.5,102.5 C 255.5,102.5 262.5,102.5 269.5,102.5C 269.5,131.833 269.5,161.167 269.5,190.5C 262.5,190.5 255.5,190.5 248.5,190.5C 248.5,161.167 248.5,131.833 248.5,102.5 Z"/></g>
<g><path style="opacity:1" fill="#60add3" d="M 346.5,126.5 C 348.392,128.814 349.725,131.481 350.5,134.5C 339.93,119.86 326.597,116.86 310.5,125.5C 310.5,124.167 310.5,122.833 310.5,121.5C 315.92,120.462 321.42,119.796 327,119.5C 333.688,119.4 340.188,120.067 346.5,121.5C 346.5,123.167 346.5,124.833 346.5,126.5 Z"/></g>
<g><path style="opacity:1" fill="#3c9ed0" d="M 320.5,101.5 C 320.833,101.5 321.167,101.5 321.5,101.5C 327.599,101.376 333.599,102.043 339.5,103.5C 352.821,106.819 362.155,114.819 367.5,127.5C 366.141,128.007 365.141,129.007 364.5,130.5C 363.522,130.023 362.689,129.357 362,128.5C 360.966,132.654 359.632,136.654 358,140.5C 357.814,138.1 357.314,135.766 356.5,133.5C 356.167,133.833 355.833,134.167 355.5,134.5C 355.069,143.611 353.902,152.611 352,161.5C 351.586,161.043 351.086,160.709 350.5,160.5C 348.761,163.204 346.761,165.704 344.5,168C 343.207,168.49 341.873,168.657 340.5,168.5C 345.613,164.925 349.28,160.259 351.5,154.5C 352.973,151.983 353.64,149.15 353.5,146C 353.64,142.85 352.973,140.017 351.5,137.5C 350.596,136.791 350.263,135.791 350.5,134.5C 349.725,131.481 348.392,128.814 346.5,126.5C 347.75,126.423 348.583,125.756 349,124.5C 349.333,124.833 349.667,125.167 350,125.5C 349.577,127.387 349.744,129.387 350.5,131.5C 351.5,131.5 352.5,131.5 353.5,131.5C 353.238,130.022 353.571,128.689 354.5,127.5C 355.167,129.167 355.833,130.833 356.5,132.5C 358.27,129.807 358.937,126.807 358.5,123.5C 356.571,123.769 354.905,123.269 353.5,122C 354.466,119.901 355.8,118.068 357.5,116.5C 356.167,115.833 354.833,115.167 353.5,114.5C 352.872,112.742 351.872,111.242 350.5,110C 347.167,109.667 343.833,109.333 340.5,109C 341.328,108.085 342.328,107.419 343.5,107C 343.167,106.667 342.833,106.333 342.5,106C 333.271,103.509 323.938,103.009 314.5,104.5C 316.5,103.5 318.5,102.5 320.5,101.5 Z"/></g>
<g><path style="opacity:1" fill="#1b99d8" d="M 346.5,126.5 C 346.5,124.833 346.5,123.167 346.5,121.5C 340.188,120.067 333.688,119.4 327,119.5C 321.42,119.796 315.92,120.462 310.5,121.5C 310.5,122.833 310.5,124.167 310.5,125.5C 307.05,124.756 305.384,126.09 305.5,129.5C 304.325,129.281 303.325,129.614 302.5,130.5C 301.917,132.002 301.084,133.335 300,134.5C 299.333,140.833 299.333,147.167 300,153.5C 301.189,155.233 302.356,156.9 303.5,158.5C 303.884,162.555 305.884,165.555 309.5,167.5C 309.854,170.421 308.854,172.754 306.5,174.5C 308.167,175.833 309.833,177.167 311.5,178.5C 310.277,179.614 308.944,179.781 307.5,179C 306.252,177.041 304.585,175.541 302.5,174.5C 301.266,176.398 301.599,178.065 303.5,179.5C 301.955,180.452 300.288,180.785 298.5,180.5C 297.831,177.67 296.497,175.17 294.5,173C 294.735,172.127 295.069,171.293 295.5,170.5C 291.921,168.28 289.588,165.28 288.5,161.5C 287.5,161.5 286.5,161.5 285.5,161.5C 284.501,153.189 284.335,144.856 285,136.5C 286.46,134.028 287.46,131.361 288,128.5C 288.903,127.299 290.069,126.465 291.5,126C 290.524,123.853 290.691,121.686 292,119.5C 294.463,116.671 297.63,115.171 301.5,115C 300.332,113.129 300.832,111.629 303,110.5C 303.718,111.451 304.551,111.617 305.5,111C 306.999,108.672 308.666,106.505 310.5,104.5C 311.833,104.5 313.167,104.5 314.5,104.5C 323.938,103.009 333.271,103.509 342.5,106C 342.833,106.333 343.167,106.667 343.5,107C 342.328,107.419 341.328,108.085 340.5,109C 343.833,109.333 347.167,109.667 350.5,110C 351.872,111.242 352.872,112.742 353.5,114.5C 354.833,115.167 356.167,115.833 357.5,116.5C 355.8,118.068 354.466,119.901 353.5,122C 354.905,123.269 356.571,123.769 358.5,123.5C 358.937,126.807 358.27,129.807 356.5,132.5C 355.833,130.833 355.167,129.167 354.5,127.5C 353.571,128.689 353.238,130.022 353.5,131.5C 352.5,131.5 351.5,131.5 350.5,131.5C 349.744,129.387 349.577,127.387 350,125.5C 349.667,125.167 349.333,124.833 349,124.5C 348.583,125.756 347.75,126.423 346.5,126.5 Z"/></g>
<g><path style="opacity:0.071" fill="#f9d084" d="M 110.5,122.5 C 113.55,128.359 115.216,134.693 115.5,141.5C 113.698,135.295 112.031,128.962 110.5,122.5 Z"/></g>
<g><path style="opacity:0.915" fill="#81bdcc" d="M 103.5,116.5 C 101.686,126.451 100.853,136.785 101,147.5C 100.617,148.056 100.117,148.389 99.5,148.5C 99.6361,137.261 99.6361,126.094 99.5,115C 99.5093,113.596 100.009,112.43 101,111.5C 102.892,112.617 103.725,114.284 103.5,116.5 Z"/></g>
<g><path style="opacity:1" fill="#eead51" d="M 119.5,106.5 C 123.788,114.629 126.122,123.462 126.5,133C 125.565,136.536 125.565,140.036 126.5,143.5C 125.735,147.69 124.735,151.69 123.5,155.5C 124.393,145.179 124.56,134.845 124,124.5C 121.328,118.804 119.828,112.804 119.5,106.5 Z"/></g>
<g><path style="opacity:0.365" fill="#92c2cd" d="M 367.5,127.5 C 370.056,131.712 371.39,136.378 371.5,141.5C 370.5,138.833 369.5,136.167 368.5,133.5C 367.85,131.565 367.517,129.565 367.5,127.5 Z"/></g>
<g><path style="opacity:0.075" fill="#badfe3" d="M 351.5,137.5 C 352.973,140.017 353.64,142.85 353.5,146C 353.64,149.15 352.973,151.983 351.5,154.5C 352.833,148.833 352.833,143.167 351.5,137.5 Z"/></g>
<g><path style="opacity:0.031" fill="#c1f4f8" d="M 283.5,135.5 C 282.78,141.138 282.447,146.804 282.5,152.5C 281.837,150.527 281.504,148.361 281.5,146C 281.379,142.218 282.046,138.718 283.5,135.5 Z"/></g>
<g><path style="opacity:1" fill="#419fcf" d="M 368.5,133.5 C 369.5,136.167 370.5,138.833 371.5,141.5C 371.094,147.863 370.427,154.197 369.5,160.5C 366.071,171.257 359.405,179.257 349.5,184.5C 350.265,182.071 351.931,180.738 354.5,180.5C 354.5,179.167 354.5,177.833 354.5,176.5C 355.833,176.5 357.167,176.5 358.5,176.5C 358.5,175.167 358.5,173.833 358.5,172.5C 359.5,172.5 360.5,172.5 361.5,172.5C 361.338,170.473 361.505,168.473 362,166.5C 362.893,167.711 363.726,167.711 364.5,166.5C 363.355,165.109 363.355,163.776 364.5,162.5C 365.086,162.709 365.586,163.043 366,163.5C 367.436,160.857 367.602,158.19 366.5,155.5C 365.833,156.833 365.167,158.167 364.5,159.5C 363.735,155.675 363.068,151.842 362.5,148C 364.147,145.804 363.813,143.971 361.5,142.5C 362.32,140.889 363.654,140.222 365.5,140.5C 364.923,144.869 365.757,148.869 368,152.5C 368.29,150.956 368.956,149.623 370,148.5C 369.408,143.559 368.908,138.559 368.5,133.5 Z"/></g>
<g><path style="opacity:0.92" fill="#5ba4bc" d="M 467.5,131.5 C 468.497,150.993 468.83,170.66 468.5,190.5C 465.016,191.165 461.349,191.499 457.5,191.5C 453.435,191.489 449.768,190.822 446.5,189.5C 446.5,171.833 446.5,154.167 446.5,136.5C 447.497,153.992 447.83,171.659 447.5,189.5C 453.176,189.666 458.843,189.499 464.5,189C 465.416,188.626 466.25,188.126 467,187.5C 467.5,168.836 467.667,150.17 467.5,131.5 Z"/></g>
<g><path style="opacity:0.976" fill="#66adcc" d="M 218.5,105.5 C 226.634,109.472 232.134,115.806 235,124.5C 236.599,146.463 236.933,168.463 236,190.5C 228.735,191.827 221.568,191.827 214.5,190.5C 214.5,173.833 214.5,157.167 214.5,140.5C 215.496,156.658 215.83,172.991 215.5,189.5C 221.833,189.5 228.167,189.5 234.5,189.5C 234.667,168.497 234.5,147.497 234,126.5C 232.667,123.918 231.5,121.251 230.5,118.5C 229.18,116.73 227.68,116.397 226,117.5C 225.667,115.833 225.333,114.167 225,112.5C 223.016,109.922 220.849,107.589 218.5,105.5 Z"/></g>
<g><path style="opacity:1" fill="#2f99ca" d="M 458.5,110.5 C 463.575,114.648 466.575,119.981 467.5,126.5C 467.5,128.167 467.5,129.833 467.5,131.5C 467.667,150.17 467.5,168.836 467,187.5C 466.25,188.126 465.416,188.626 464.5,189C 458.843,189.499 453.176,189.666 447.5,189.5C 447.83,171.659 447.497,153.992 446.5,136.5C 446.598,134.447 445.931,132.78 444.5,131.5C 442.808,129.795 441.475,127.795 440.5,125.5C 441.833,125.5 443.167,125.5 444.5,125.5C 446.498,127.699 447.664,131.033 448,135.5C 448.5,153.164 448.667,170.83 448.5,188.5C 453.511,188.666 458.511,188.499 463.5,188C 464.684,186.82 465.351,185.32 465.5,183.5C 466.614,165.181 466.781,146.848 466,128.5C 465.755,126.337 464.755,124.67 463,123.5C 459.779,126.728 458.279,126.062 458.5,121.5C 459.833,121.5 461.167,121.5 462.5,121.5C 460.423,118.254 459.09,114.587 458.5,110.5 Z"/></g>
<g><path style="opacity:1" fill="#1b99d9" d="M 106.5,179.5 C 99.878,181.742 93.2113,183.908 86.5,186C 84.6226,186.576 82.7892,186.409 81,185.5C 78.317,187.421 75.317,188.421 72,188.5C 66.7016,186.928 61.2016,186.094 55.5,186C 52.5203,185.233 49.8537,183.9 47.5,182C 45.5273,181.505 43.5273,181.338 41.5,181.5C 41.4894,179.983 40.8228,178.816 39.5,178C 40.0253,177.308 40.6919,176.808 41.5,176.5C 43.8162,177.932 46.3162,178.932 49,179.5C 49.5,179 50,178.5 50.5,178C 57.6978,177.053 64.6978,177.553 71.5,179.5C 78.6709,177.971 86.0042,176.971 93.5,176.5C 94.91,176.132 95.91,175.299 96.5,174C 93.7813,173.472 91.2813,173.972 89,175.5C 88.1667,175.167 87.3333,174.833 86.5,174.5C 89.0036,172.089 92.0036,170.422 95.5,169.5C 95.1445,168.478 94.4778,167.811 93.5,167.5C 92.6236,167.631 91.9569,167.298 91.5,166.5C 92.1272,165.583 92.4606,164.583 92.5,163.5C 93.8333,163.5 95.1667,163.5 96.5,163.5C 98.2141,159.834 100.047,156.167 102,152.5C 102.333,141.5 102.667,130.5 103,119.5C 105.408,123.455 106.741,127.788 107,132.5C 108,134.167 109,135.833 110,137.5C 110.832,148.848 110.666,160.181 109.5,171.5C 107.016,173.536 106.016,176.202 106.5,179.5 Z"/></g>
<g><path style="opacity:0.988" fill="#6cb4d2" d="M 310.5,125.5 C 301.447,134.929 299.113,145.929 303.5,158.5C 302.356,156.9 301.189,155.233 300,153.5C 299.333,147.167 299.333,140.833 300,134.5C 301.084,133.335 301.917,132.002 302.5,130.5C 303.325,129.614 304.325,129.281 305.5,129.5C 305.384,126.09 307.05,124.756 310.5,125.5 Z"/></g>
<g><path style="opacity:0.07" fill="#c5f4fd" d="M 467.5,126.5 C 468.29,127.609 468.79,128.942 469,130.5C 469.829,150.671 469.662,170.671 468.5,190.5C 468.83,170.66 468.497,150.993 467.5,131.5C 467.5,129.833 467.5,128.167 467.5,126.5 Z"/></g>
<g><path style="opacity:0.039" fill="#c5e7fd" d="M 444.5,131.5 C 445.931,132.78 446.598,134.447 446.5,136.5C 446.5,154.167 446.5,171.833 446.5,189.5C 445.784,170.314 445.118,150.981 444.5,131.5 Z"/></g>
<g><path style="opacity:0.302" fill="#a7cbd1" d="M 371.5,141.5 C 372.678,147.969 372.011,154.302 369.5,160.5C 370.427,154.197 371.094,147.863 371.5,141.5 Z"/></g>
<g><path style="opacity:0.987" fill="#4da1c7" d="M 103.5,116.5 C 105.787,120.152 107.621,124.152 109,128.5C 110.493,133.804 111.659,139.138 112.5,144.5C 112.531,153.982 112.198,163.649 111.5,173.5C 110.581,176.089 108.914,178.089 106.5,179.5C 106.016,176.202 107.016,173.536 109.5,171.5C 110.666,160.181 110.832,148.848 110,137.5C 109,135.833 108,134.167 107,132.5C 106.741,127.788 105.408,123.455 103,119.5C 102.667,130.5 102.333,141.5 102,152.5C 100.047,156.167 98.2141,159.834 96.5,163.5C 95.1667,163.5 93.8333,163.5 92.5,163.5C 96.1702,159.158 98.5035,154.158 99.5,148.5C 100.117,148.389 100.617,148.056 101,147.5C 100.853,136.785 101.686,126.451 103.5,116.5 Z"/></g>
<g><path style="opacity:0.196" fill="#dccaa0" d="M 115.5,152.5 C 116.327,157.985 116.827,163.652 117,169.5C 117.417,168.244 118.25,167.577 119.5,167.5C 118.856,170.804 116.856,172.138 113.5,171.5C 114.407,165.894 114.74,160.227 114.5,154.5C 115.338,154.158 115.672,153.492 115.5,152.5 Z"/></g>
<g><path style="opacity:0.388" fill="#97cfe0" d="M 174.5,131.5 C 173.561,151.477 173.228,171.477 173.5,191.5C 165.648,191.825 157.982,191.492 150.5,190.5C 158.019,190.825 165.352,190.492 172.5,189.5C 172.333,170.83 172.5,152.164 173,133.5C 173.278,132.584 173.778,131.918 174.5,131.5 Z"/></g>
<g><path style="opacity:0.565" fill="#e2b164" d="M 115.5,143.5 C 117.144,150.119 118.144,157.119 118.5,164.5C 119.896,162.028 120.73,159.362 121,156.5C 121.671,155.748 122.504,155.414 123.5,155.5C 122.468,159.642 121.134,163.642 119.5,167.5C 118.25,167.577 117.417,168.244 117,169.5C 116.827,163.652 116.327,157.985 115.5,152.5C 116.372,149.579 116.372,146.579 115.5,143.5 Z"/></g>
<g><path style="opacity:0.942" fill="#6caabe" d="M 150.5,101.5 C 151.492,101.328 152.158,101.662 152.5,102.5C 151.502,131.329 151.169,160.329 151.5,189.5C 158.5,189.5 165.5,189.5 172.5,189.5C 165.352,190.492 158.019,190.825 150.5,190.5C 149.167,160.833 149.167,131.167 150.5,101.5 Z"/></g>
<g><path style="opacity:0.446" fill="#84c7e0" d="M 209.5,127.5 C 210.496,127.414 211.329,127.748 212,128.5C 213.156,132.44 213.99,136.44 214.5,140.5C 214.5,157.167 214.5,173.833 214.5,190.5C 213.668,173.672 213.168,156.672 213,139.5C 212.975,135.087 211.809,131.087 209.5,127.5 Z"/></g>
<g><path style="opacity:1" fill="#77bad6" d="M 303.5,158.5 C 308.129,164.807 314.129,169.14 321.5,171.5C 318.126,171.326 314.793,170.826 311.5,170C 310.934,169.005 310.267,168.172 309.5,167.5C 305.884,165.555 303.884,162.555 303.5,158.5 Z"/></g>
<g><path style="opacity:0.922" fill="#77b5ce" d="M 409.5,109.5 C 408.292,112.044 406.292,113.378 403.5,113.5C 403.5,109.833 403.5,106.167 403.5,102.5C 397.167,102.5 390.833,102.5 384.5,102.5C 384.5,131.167 384.5,159.833 384.5,188.5C 391.167,188.5 397.833,188.5 404.5,188.5C 404.185,168.633 404.518,148.799 405.5,129C 405.241,127.739 404.574,126.739 403.5,126C 405.81,125.503 408.143,125.337 410.5,125.5C 410.5,124.5 410.5,123.5 410.5,122.5C 411.833,122.5 413.167,122.5 414.5,122.5C 414.5,122.833 414.5,123.167 414.5,123.5C 410.274,125.908 407.774,129.575 407,134.5C 406.667,153.167 406.333,171.833 406,190.5C 398.333,191.833 390.667,191.833 383,190.5C 382.333,160.833 382.333,131.167 383,101.5C 390.086,100.354 397.253,100.188 404.5,101C 405.293,104.411 405.793,107.911 406,111.5C 406.816,110.177 407.983,109.511 409.5,109.5 Z"/></g>
<g><path style="opacity:1" fill="#209ad7" d="M 43.5,163.5 C 45.7456,163.691 48.0789,164.024 50.5,164.5C 53.6432,169.743 58.3099,172.076 64.5,171.5C 64.8333,171.5 65.1667,171.5 65.5,171.5C 70.6503,172.651 75.9836,172.817 81.5,172C 84.0267,171.487 86.1933,170.32 88,168.5C 90.4276,170.13 92.261,169.797 93.5,167.5C 94.4778,167.811 95.1445,168.478 95.5,169.5C 92.0036,170.422 89.0036,172.089 86.5,174.5C 87.3333,174.833 88.1667,175.167 89,175.5C 91.2813,173.972 93.7813,173.472 96.5,174C 95.91,175.299 94.91,176.132 93.5,176.5C 86.0042,176.971 78.6709,177.971 71.5,179.5C 64.6978,177.553 57.6978,177.053 50.5,178C 50,178.5 49.5,179 49,179.5C 46.3162,178.932 43.8162,177.932 41.5,176.5C 40.6919,176.808 40.0253,177.308 39.5,178C 40.8228,178.816 41.4894,179.983 41.5,181.5C 37.6367,180.306 34.6367,177.973 32.5,174.5C 31.8333,172.5 31.1667,170.5 30.5,168.5C 31.2674,167.828 31.9341,166.995 32.5,166C 31.0648,163.057 29.3981,160.223 27.5,157.5C 27.6667,156.833 27.8333,156.167 28,155.5C 28.3678,156.91 29.2011,157.91 30.5,158.5C 32.6905,153.398 34.3572,153.732 35.5,159.5C 37.9138,161.224 40.5804,162.558 43.5,163.5 Z"/></g>
<g><path style="opacity:1" fill="#4fa6cf" d="M 92.5,163.5 C 92.4606,164.583 92.1272,165.583 91.5,166.5C 91.9569,167.298 92.6236,167.631 93.5,167.5C 92.261,169.797 90.4276,170.13 88,168.5C 86.1933,170.32 84.0267,171.487 81.5,172C 75.9836,172.817 70.6503,172.651 65.5,171.5C 70.5111,171.666 75.5111,171.499 80.5,171C 81.4158,170.722 82.0825,170.222 82.5,169.5C 85.7976,167.515 89.1309,165.515 92.5,163.5 Z"/></g>
<g><path style="opacity:0.259" fill="#c0d2c4" d="M 112.5,144.5 C 112.316,148.079 112.983,151.413 114.5,154.5C 114.74,160.227 114.407,165.894 113.5,171.5C 112.833,172.167 112.167,172.833 111.5,173.5C 112.198,163.649 112.531,153.982 112.5,144.5 Z"/></g>
<g><path style="opacity:0.036" fill="#bfe7ee" d="M 61.5,169.5 C 68.5095,170.714 75.5095,170.714 82.5,169.5C 82.0825,170.222 81.4158,170.722 80.5,171C 75.5111,171.499 70.5111,171.666 65.5,171.5C 65.1667,171.5 64.8333,171.5 64.5,171.5C 63.5,170.833 62.5,170.167 61.5,169.5 Z"/></g>
<g><path style="opacity:1" fill="#209ad7" d="M 367.5,127.5 C 367.517,129.565 367.85,131.565 368.5,133.5C 368.908,138.559 369.408,143.559 370,148.5C 368.956,149.623 368.29,150.956 368,152.5C 365.757,148.869 364.923,144.869 365.5,140.5C 363.654,140.222 362.32,140.889 361.5,142.5C 363.813,143.971 364.147,145.804 362.5,148C 363.068,151.842 363.735,155.675 364.5,159.5C 365.167,158.167 365.833,156.833 366.5,155.5C 367.602,158.19 367.436,160.857 366,163.5C 365.586,163.043 365.086,162.709 364.5,162.5C 363.355,163.776 363.355,165.109 364.5,166.5C 363.726,167.711 362.893,167.711 362,166.5C 361.505,168.473 361.338,170.473 361.5,172.5C 360.5,172.5 359.5,172.5 358.5,172.5C 358.5,173.833 358.5,175.167 358.5,176.5C 357.167,176.5 355.833,176.5 354.5,176.5C 354.5,177.833 354.5,179.167 354.5,180.5C 351.931,180.738 350.265,182.071 349.5,184.5C 341.635,186.252 333.635,187.918 325.5,189.5C 320.256,188.198 314.922,187.532 309.5,187.5C 305.024,186.343 301.358,184.01 298.5,180.5C 300.288,180.785 301.955,180.452 303.5,179.5C 301.599,178.065 301.266,176.398 302.5,174.5C 304.585,175.541 306.252,177.041 307.5,179C 308.944,179.781 310.277,179.614 311.5,178.5C 309.833,177.167 308.167,175.833 306.5,174.5C 308.854,172.754 309.854,170.421 309.5,167.5C 310.267,168.172 310.934,169.005 311.5,170C 314.793,170.826 318.126,171.326 321.5,171.5C 325.981,172.648 330.648,172.815 335.5,172C 336.056,171.617 336.389,171.117 336.5,170.5C 337.514,169.326 338.847,168.66 340.5,168.5C 341.873,168.657 343.207,168.49 344.5,168C 346.761,165.704 348.761,163.204 350.5,160.5C 351.086,160.709 351.586,161.043 352,161.5C 353.902,152.611 355.069,143.611 355.5,134.5C 355.833,134.167 356.167,133.833 356.5,133.5C 357.314,135.766 357.814,138.1 358,140.5C 359.632,136.654 360.966,132.654 362,128.5C 362.689,129.357 363.522,130.023 364.5,130.5C 365.141,129.007 366.141,128.007 367.5,127.5 Z"/></g>
<g><path style="opacity:0.945" fill="#97d1e5" d="M 336.5,170.5 C 336.389,171.117 336.056,171.617 335.5,172C 330.648,172.815 325.981,172.648 321.5,171.5C 326.537,171.587 331.537,171.254 336.5,170.5 Z"/></g>
<g><path style="opacity:1" fill="#46a0ca" d="M 106.5,179.5 C 103.279,182.278 99.6119,184.278 95.5,185.5C 86.3531,187.854 77.0198,189.188 67.5,189.5C 63.0196,188.479 58.353,187.813 53.5,187.5C 48.9024,186.535 44.9024,184.535 41.5,181.5C 43.5273,181.338 45.5273,181.505 47.5,182C 49.8537,183.9 52.5203,185.233 55.5,186C 61.2016,186.094 66.7016,186.928 72,188.5C 75.317,188.421 78.317,187.421 81,185.5C 82.7892,186.409 84.6226,186.576 86.5,186C 93.2113,183.908 99.878,181.742 106.5,179.5 Z"/></g>
<g><path style="opacity:1" fill="#2a96ca" d="M 152.5,102.5 C 152.5,129.5 152.5,156.5 152.5,183.5C 154.833,183.5 157.167,183.5 159.5,183.5C 159.5,184.5 159.5,185.5 159.5,186.5C 157.712,186.215 156.045,186.548 154.5,187.5C 155.5,187.833 156.5,188.167 157.5,188.5C 161.69,186.881 166.023,185.881 170.5,185.5C 171.798,170.833 171.798,156.166 170.5,141.5C 171.163,138.194 171.663,134.861 172,131.5C 172.417,130.244 173.25,129.577 174.5,129.5C 174.5,130.167 174.5,130.833 174.5,131.5C 173.778,131.918 173.278,132.584 173,133.5C 172.5,152.164 172.333,170.83 172.5,189.5C 165.5,189.5 158.5,189.5 151.5,189.5C 151.169,160.329 151.502,131.329 152.5,102.5 Z"/></g>
<g><path style="opacity:0.635" fill="#aedfeb" d="M 53.5,187.5 C 58.353,187.813 63.0196,188.479 67.5,189.5C 62.5474,189.877 57.8807,189.211 53.5,187.5 Z"/></g>
<g><path style="opacity:0.678" fill="#9ed2df" d="M 95.5,185.5 C 92.802,187.172 89.802,188.339 86.5,189C 81.8372,189.537 77.1706,190.037 72.5,190.5C 70.6307,190.493 68.964,190.16 67.5,189.5C 77.0198,189.188 86.3531,187.854 95.5,185.5 Z"/></g>
<g><path style="opacity:1" fill="#72b5d3" d="M 349.5,184.5 C 347.3,186.64 344.633,188.14 341.5,189C 330.505,192.69 319.838,192.19 309.5,187.5C 314.922,187.532 320.256,188.198 325.5,189.5C 333.635,187.918 341.635,186.252 349.5,184.5 Z"/></g>
<g><path style="opacity:0.008" fill="#eaf7fc" d="M 305.5,200.5 C 305.5,202.167 305.5,203.833 305.5,205.5C 304.5,205.5 303.5,205.5 302.5,205.5C 303.767,203.961 304.767,202.294 305.5,200.5 Z"/></g>
<g><path style="opacity:0.329" fill="#90cbe0" d="M 111.5,210.5 C 111.167,212.833 109.833,214.167 107.5,214.5C 109.129,212.804 108.796,211.804 106.5,211.5C 103.713,212.477 100.713,212.81 97.5,212.5C 97.5,209.167 97.5,205.833 97.5,202.5C 100.85,202.335 104.183,202.502 107.5,203C 108.665,205.732 109.998,208.232 111.5,210.5 Z M 106.5,211.5 C 103.833,211.5 101.167,211.5 98.5,211.5C 98.5,208.833 98.5,206.167 98.5,203.5C 101.187,203.336 103.854,203.503 106.5,204C 109.018,206.479 109.018,208.979 106.5,211.5 Z"/></g>
<g><path style="opacity:0.184" fill="#b2deea" d="M 445.5,205.5 C 443.833,205.5 442.167,205.5 440.5,205.5C 440.843,203.517 440.176,202.183 438.5,201.5C 438.517,199.972 439.184,199.472 440.5,200C 441.38,201.356 441.714,202.856 441.5,204.5C 443.099,204.232 444.432,204.566 445.5,205.5 Z"/></g>
<g><path style="opacity:0.094" fill="#c0e5ed" d="M 305.5,200.5 C 306.568,199.566 307.901,199.232 309.5,199.5C 309.5,201.167 309.5,202.833 309.5,204.5C 312.045,204.151 314.045,204.984 315.5,207C 314.906,207.464 314.239,207.631 313.5,207.5C 312.448,205.744 310.781,205.077 308.5,205.5C 308.5,203.833 308.5,202.167 308.5,200.5C 307.5,200.5 306.5,200.5 305.5,200.5 Z"/></g>
<g><path style="opacity:0.247" fill="#a1ccd1" d="M 417.5,200.5 C 418.209,199.596 419.209,199.263 420.5,199.5C 420.5,206.167 420.5,212.833 420.5,219.5C 420.149,212.935 419.149,206.601 417.5,200.5 Z"/></g>
<g><path style="opacity:0.961" fill="#6cadc6" d="M 216.5,204.5 C 219.685,204.02 222.519,204.686 225,206.5C 226.11,204.963 227.61,204.297 229.5,204.5C 229.666,210.509 229.499,216.509 229,222.5C 227.413,223.727 226.079,223.394 225,221.5C 219.825,224.596 215.492,223.596 212,218.5C 209.763,212.639 211.263,207.973 216.5,204.5 Z M 218.5,208.5 C 224.555,208.052 226.721,210.719 225,216.5C 221.255,220.566 217.922,220.233 215,215.5C 214.576,212.348 215.743,210.014 218.5,208.5 Z"/></g>
<g><path style="opacity:1" fill="#3f92b4" d="M 438.5,201.5 C 440.176,202.183 440.843,203.517 440.5,205.5C 442.167,205.5 443.833,205.5 445.5,205.5C 444.448,207.256 442.781,207.923 440.5,207.5C 440.82,210.898 440.487,214.232 439.5,217.5C 438.534,215.604 438.201,213.604 438.5,211.5C 438.5,210.833 438.5,210.167 438.5,209.5C 438.119,208.069 437.119,207.236 435.5,207C 438.035,206.072 439.035,204.238 438.5,201.5 Z"/></g>
<g><path style="opacity:0.941" fill="#7bb9d0" d="M 166.5,222.5 C 166.255,217.946 166.588,213.446 167.5,209C 167.387,207.72 166.72,206.887 165.5,206.5C 164.505,211.792 164.172,217.125 164.5,222.5C 163.511,217.025 163.178,211.358 163.5,205.5C 165.144,205.286 166.644,205.62 168,206.5C 169.441,205.74 170.941,205.074 172.5,204.5C 174.596,205.62 174.93,207.12 173.5,209C 171.744,209.202 170.078,209.702 168.5,210.5C 167.891,214.635 167.224,218.635 166.5,222.5 Z"/></g>
<g><path style="opacity:0.976" fill="#90cadb" d="M 263.5,205.5 C 269.705,203.612 273.705,205.945 275.5,212.5C 275.392,213.442 275.059,214.275 274.5,215C 270.035,215.874 265.702,216.707 261.5,217.5C 260.596,216.791 260.263,215.791 260.5,214.5C 264.833,214.5 269.167,214.5 273.5,214.5C 273.719,213.325 273.386,212.325 272.5,211.5C 268.571,212.433 264.571,212.766 260.5,212.5C 260.088,210.027 261.088,208.694 263.5,208.5C 264.718,207.839 266.051,207.172 267.5,206.5C 266.311,205.571 264.978,205.238 263.5,205.5 Z M 263.5,208.5 C 266.346,208.03 268.679,208.863 270.5,211C 267.5,211.667 264.5,211.667 261.5,211C 262.381,210.292 263.047,209.458 263.5,208.5 Z"/></g>
<g><path style="opacity:0.969" fill="#3d99c4" d="M 305.5,200.5 C 306.5,200.5 307.5,200.5 308.5,200.5C 308.5,202.167 308.5,203.833 308.5,205.5C 310.781,205.077 312.448,205.744 313.5,207.5C 311.833,207.5 310.167,207.5 308.5,207.5C 307.679,210.641 307.179,213.975 307,217.5C 306.502,214.183 306.335,210.85 306.5,207.5C 305.167,207.5 303.833,207.5 302.5,207.5C 301.167,206.833 301.167,206.167 302.5,205.5C 303.5,205.5 304.5,205.5 305.5,205.5C 305.5,203.833 305.5,202.167 305.5,200.5 Z"/></g>
<g><path style="opacity:1" fill="#8fbfc8" d="M 395.5,205.5 C 399.071,205.408 400.238,207.074 399,210.5C 396.367,208.84 393.534,208.34 390.5,209C 389.748,209.671 389.414,210.504 389.5,211.5C 388.427,210.749 388.26,209.749 389,208.5C 391.63,208.141 393.797,207.141 395.5,205.5 Z"/></g>
<g><path style="opacity:0.979" fill="#69abc8" d="M 417.5,200.5 C 419.149,206.601 420.149,212.935 420.5,219.5C 424.442,219.875 428.109,220.875 431.5,222.5C 426.985,223.812 422.318,223.812 417.5,222.5C 416.186,215.038 416.186,207.705 417.5,200.5 Z"/></g>
<g><path style="opacity:0.329" fill="#93cde0" d="M 375.5,200.5 C 376.568,199.566 377.901,199.232 379.5,199.5C 379.826,207.684 379.492,215.684 378.5,223.5C 378.5,215.833 378.5,208.167 378.5,200.5C 377.5,200.5 376.5,200.5 375.5,200.5 Z"/></g>
<g><path style="opacity:0.055" fill="#acd7e0" d="M 438.5,201.5 C 439.035,204.238 438.035,206.072 435.5,207C 437.119,207.236 438.119,208.069 438.5,209.5C 432.491,208.248 432.158,206.581 437.5,204.5C 437.263,203.209 437.596,202.209 438.5,201.5 Z"/></g>
<g><path style="opacity:0.988" fill="#70afc8" d="M 335.5,204.5 C 341.412,203.609 345.079,205.942 346.5,211.5C 343.87,210.572 341.204,209.572 338.5,208.5C 333.745,209.88 332.412,212.88 334.5,217.5C 335.559,218.696 336.893,219.363 338.5,219.5C 340.99,218.005 343.657,217.005 346.5,216.5C 346.201,219.642 344.534,221.809 341.5,223C 334.698,223.754 330.365,220.754 328.5,214C 329.546,209.684 331.879,206.518 335.5,204.5 Z"/></g>
<g><path style="opacity:1" fill="#74b5cd" d="M 118.5,198.5 C 119.5,198.5 120.5,198.5 121.5,198.5C 121.336,201.187 121.503,203.854 122,206.5C 124.938,204.131 128.104,203.964 131.5,206C 132.701,206.903 133.535,208.069 134,209.5C 134.667,213.833 134.667,218.167 134,222.5C 133,223.833 132,223.833 131,222.5C 130.667,218.833 130.333,215.167 130,211.5C 127.333,207.5 124.667,207.5 122,211.5C 121.667,215.167 121.333,218.833 121,222.5C 120,223.833 119,223.833 118,222.5C 117.779,215.63 117.279,208.797 116.5,202C 116.978,200.697 117.645,199.531 118.5,198.5 Z"/></g>
<g><path style="opacity:0.945" fill="#6eb0cb" d="M 186.5,204.5 C 189.099,204.549 191.266,205.549 193,207.5C 197,203.5 201,203.5 205,207.5C 206.492,212.411 206.826,217.411 206,222.5C 204.989,223.337 203.822,223.67 202.5,223.5C 201.976,219.926 201.976,216.426 202.5,213C 202.008,208.982 200.008,207.815 196.5,209.5C 194.929,211.882 194.096,214.549 194,217.5C 192.989,218.337 191.822,218.67 190.5,218.5C 192.624,214.272 191.624,210.939 187.5,208.5C 186.252,209.04 185.085,209.707 184,210.5C 183.667,214.5 183.333,218.5 183,222.5C 181.989,223.337 180.822,223.67 179.5,223.5C 178.447,217.737 178.281,212.07 179,206.5C 181.607,205.877 184.107,205.21 186.5,204.5 Z"/></g>
<g><path style="opacity:0.675" fill="#98cedb" d="M 108.5,200.5 C 104.167,200.5 99.8333,200.5 95.5,200.5C 95.1697,207.532 95.503,214.532 96.5,221.5C 97.4742,219.257 97.8076,216.924 97.5,214.5C 100.833,214.5 104.167,214.5 107.5,214.5C 104.713,215.477 101.713,215.81 98.5,215.5C 98.6633,217.857 98.4966,220.19 98,222.5C 96.9887,223.337 95.8221,223.67 94.5,223.5C 93.7622,215.841 93.5956,208.174 94,200.5C 98.9329,199.176 103.766,199.176 108.5,200.5 Z"/></g>
<g><path style="opacity:0.639" fill="#96c9d5" d="M 293.5,205.5 C 294.209,204.596 295.209,204.263 296.5,204.5C 296.5,210.833 296.5,217.167 296.5,223.5C 292.709,223.043 289.042,222.71 285.5,222.5C 288.049,222.613 290.382,221.946 292.5,220.5C 293.167,220.833 293.833,221.167 294.5,221.5C 294.833,218.833 295.167,216.167 295.5,213.5C 295.478,210.41 294.812,207.743 293.5,205.5 Z"/></g>
<g><path style="opacity:0.135" fill="#beedf5" d="M 308.5,207.5 C 310.167,207.5 311.833,207.5 313.5,207.5C 312.432,208.434 311.099,208.768 309.5,208.5C 309.5,212.167 309.5,215.833 309.5,219.5C 308.517,215.702 308.183,211.702 308.5,207.5 Z"/></g>
<g><path style="opacity:1" fill="#63a7c6" d="M 375.5,200.5 C 376.5,200.5 377.5,200.5 378.5,200.5C 378.5,208.167 378.5,215.833 378.5,223.5C 376.876,223.64 375.71,222.973 375,221.5C 374.179,214.321 374.345,207.321 375.5,200.5 Z"/></g>
<g><path style="opacity:1" fill="#4299c1" d="M 108.5,200.5 C 112.259,203.103 113.259,206.436 111.5,210.5C 109.998,208.232 108.665,205.732 107.5,203C 104.183,202.502 100.85,202.335 97.5,202.5C 97.5,205.833 97.5,209.167 97.5,212.5C 100.713,212.81 103.713,212.477 106.5,211.5C 108.796,211.804 109.129,212.804 107.5,214.5C 104.167,214.5 100.833,214.5 97.5,214.5C 97.8076,216.924 97.4742,219.257 96.5,221.5C 95.503,214.532 95.1697,207.532 95.5,200.5C 99.8333,200.5 104.167,200.5 108.5,200.5 Z"/></g>
<g><path style="opacity:0.902" fill="#4795b7" d="M 263.5,205.5 C 264.978,205.238 266.311,205.571 267.5,206.5C 266.051,207.172 264.718,207.839 263.5,208.5C 261.088,208.694 260.088,210.027 260.5,212.5C 264.571,212.766 268.571,212.433 272.5,211.5C 273.386,212.325 273.719,213.325 273.5,214.5C 269.167,214.5 264.833,214.5 260.5,214.5C 260.263,215.791 260.596,216.791 261.5,217.5C 260.992,219.233 260.159,219.566 259,218.5C 258.322,214.779 258.489,211.112 259.5,207.5C 260.287,205.896 261.62,205.229 263.5,205.5 Z"/></g>
<g><path style="opacity:1" fill="#4297c0" d="M 166.5,222.5 C 165.833,223.833 165.167,223.833 164.5,222.5C 164.172,217.125 164.505,211.792 165.5,206.5C 166.72,206.887 167.387,207.72 167.5,209C 166.588,213.446 166.255,217.946 166.5,222.5 Z"/></g>
<g><path style="opacity:0.914" fill="#96cddb" d="M 284.5,217.5 C 283.834,213.979 283.167,210.313 282.5,206.5C 281.508,210.783 281.174,215.116 281.5,219.5C 279.953,217.193 279.287,214.527 279.5,211.5C 279.532,209.241 279.866,207.075 280.5,205C 281.784,204.316 282.951,204.483 284,205.5C 284.499,209.486 284.666,213.486 284.5,217.5 Z"/></g>
<g><path style="opacity:0.939" fill="#6daec6" d="M 465.5,199.5 C 466.822,199.33 467.989,199.663 469,200.5C 469.667,207.5 469.667,214.5 469,221.5C 468.125,223.513 466.791,223.513 465,221.5C 459.148,224.585 454.481,223.251 451,217.5C 450.184,206.638 454.851,202.971 465,206.5C 465.497,204.19 465.663,201.857 465.5,199.5 Z M 457.5,208.5 C 464.807,208.606 466.807,211.773 463.5,218C 457.744,220.569 454.911,218.736 455,212.5C 455.662,211.016 456.496,209.683 457.5,208.5 Z"/></g>
<g><path style="opacity:1" fill="#6daeca" d="M 357.5,204.5 C 360.602,204.154 363.435,204.821 366,206.5C 366.953,204.408 368.286,204.075 370,205.5C 370.739,211.558 370.406,217.558 369,223.5C 367.181,221.464 365.347,221.297 363.5,223C 353.96,223.456 350.127,218.956 352,209.5C 353.73,207.598 355.563,205.931 357.5,204.5 Z M 358.5,208.5 C 364.535,208.191 366.869,210.857 365.5,216.5C 362.29,220.434 359.123,220.434 356,216.5C 354.837,213.029 355.67,210.362 358.5,208.5 Z"/></g>
<g><path style="opacity:1" fill="#78b6cf" d="M 145.5,204.5 C 148.602,204.154 151.435,204.821 154,206.5C 155.079,204.606 156.413,204.273 158,205.5C 158.807,211.416 158.641,217.25 157.5,223C 155.953,223.333 154.62,222.833 153.5,221.5C 148.821,224.471 144.654,223.804 141,219.5C 138.074,213.085 139.574,208.085 145.5,204.5 Z M 146.5,208.5 C 153.519,208.723 155.519,211.89 152.5,218C 145.922,220.757 143.089,218.59 144,211.5C 144.698,210.309 145.531,209.309 146.5,208.5 Z"/></g>
<g><path style="opacity:0.988" fill="#91c4d5" d="M 320.5,199.5 C 322.384,199.712 323.717,200.712 324.5,202.5C 324.54,209.386 324.373,216.386 324,223.5C 322.887,224.711 321.72,224.711 320.5,223.5C 320.167,220.667 319.833,217.833 319.5,215C 319.784,209.658 320.117,204.492 320.5,199.5 Z"/></g>
<g><path style="opacity:1" fill="#2f94c5" d="M 321.5,206.5 C 322.812,208.743 323.478,211.41 323.5,214.5C 323.167,217.167 322.833,219.833 322.5,222.5C 321.505,217.208 321.172,211.875 321.5,206.5 Z"/></g>
<g><path style="opacity:1" fill="#6cacc8" d="M 395.5,205.5 C 393.797,207.141 391.63,208.141 389,208.5C 388.26,209.749 388.427,210.749 389.5,211.5C 394.522,211.175 398.189,213.175 400.5,217.5C 397.344,223.737 392.678,225.07 386.5,221.5C 385.167,220.167 385.167,218.833 386.5,217.5C 389.276,219.13 392.276,219.797 395.5,219.5C 395.5,218.5 395.5,217.5 395.5,216.5C 390.555,216.365 386.888,214.199 384.5,210C 386.941,205.103 390.608,203.603 395.5,205.5 Z"/></g>
<g><path style="opacity:0.976" fill="#8cc1d1" d="M 445.5,205.5 C 446.404,206.209 446.737,207.209 446.5,208.5C 444.833,208.5 443.167,208.5 441.5,208.5C 441.335,211.85 441.502,215.183 442,218.5C 443.356,219.38 444.856,219.714 446.5,219.5C 445.712,223.797 443.379,224.63 439.5,222C 437.378,218.553 437.045,215.053 438.5,211.5C 438.201,213.604 438.534,215.604 439.5,217.5C 440.487,214.232 440.82,210.898 440.5,207.5C 442.781,207.923 444.448,207.256 445.5,205.5 Z"/></g>
<g><path style="opacity:0.267" fill="#9ed0df" d="M 420.5,219.5 C 424.5,219.5 428.5,219.5 432.5,219.5C 432.737,220.791 432.404,221.791 431.5,222.5C 428.109,220.875 424.442,219.875 420.5,219.5 Z"/></g>
<g><path style="opacity:1" fill="#74b1c9" d="M 240.5,204.5 C 246.794,203.302 250.794,205.636 252.5,211.5C 249.395,211.218 246.562,210.218 244,208.5C 238.619,209.685 237.286,212.685 240,217.5C 241.313,218.573 242.813,219.24 244.5,219.5C 246.792,217.551 249.459,216.551 252.5,216.5C 252.128,220.043 250.128,222.21 246.5,223C 239.675,223.848 235.675,220.848 234.5,214C 235.142,209.863 237.142,206.697 240.5,204.5 Z"/></g>
<g><path style="opacity:1" fill="#81bbd0" d="M 259.5,207.5 C 258.489,211.112 258.322,214.779 259,218.5C 260.159,219.566 260.992,219.233 261.5,217.5C 262.667,218.815 264.167,219.481 266,219.5C 268.601,217.847 271.435,217.347 274.5,218C 270.621,224.038 265.621,225.038 259.5,221C 255.688,216.359 255.688,211.859 259.5,207.5 Z"/></g>
<g><path style="opacity:1" fill="#5ca6c7" d="M 293.5,205.5 C 294.812,207.743 295.478,210.41 295.5,213.5C 295.167,216.167 294.833,218.833 294.5,221.5C 293.833,221.167 293.167,220.833 292.5,220.5C 290.382,221.946 288.049,222.613 285.5,222.5C 283.596,222.262 282.262,221.262 281.5,219.5C 281.174,215.116 281.508,210.783 282.5,206.5C 283.167,210.313 283.834,213.979 284.5,217.5C 286.921,220.099 289.421,220.099 292,217.5C 292.176,213.312 292.676,209.312 293.5,205.5 Z"/></g>
<g><path style="opacity:0.967" fill="#72b1c9" d="M 302.5,207.5 C 303.833,207.5 305.167,207.5 306.5,207.5C 306.335,210.85 306.502,214.183 307,217.5C 307.179,213.975 307.679,210.641 308.5,207.5C 308.183,211.702 308.517,215.702 309.5,219.5C 311.167,219.5 312.833,219.5 314.5,219.5C 314.5,220.833 314.5,222.167 314.5,223.5C 307.817,223.986 304.484,220.819 304.5,214C 304.559,212.564 304.892,211.231 305.5,210C 304.429,209.148 303.429,208.315 302.5,207.5 Z"/></g>
</svg>
